# xmcd
#
# Track frame offsets: 
#        151
#        16518
#        36068
#        54612
#        77468
#        95827
#        115601
#        136052
#        154948
#
# Disc length: 2399 seconds
#
# Revision: 0
# Processed by: cddbd v1.5.2PL0 Copyright (c) Steve Scherf et al.
# Submitted via: ExactAudioCopy v0.99pb4
#
DISCID=60095d09
DTITLE=Stikman "Vince Warren" - U Asked 4 It
DYEAR=2004
DGENRE=Blues
TTITLE0=The Thrill Is Gone
TTITLE1=Mustang Sally
TTITLE2=The Blues On You
TTITLE3=What's Going On
TTITLE4=Slick Stick
TTITLE5=Satisfaction
TTITLE6=What A Wonderful World
TTITLE7=I Got My Mojo Working
TTITLE8=Last Day
EXTD=
EXTT0=
EXTT1=
EXTT2=
EXTT3=
EXTT4=
EXTT5=
EXTT6=
EXTT7=
EXTT8=
PLAYORDER=
